<svg version="1.1" id="Layer_1" xmlns="http://www.w3.org/2000/svg" xmlns:xlink="http://www.w3.org/1999/xlink" x="0px" y="0px"
	 width="100%" viewBox="0 0 1060 335" enable-background="new 0 0 1060 335" xml:space="preserve">
<path fill="#FFFFFF" opacity="1.000000" stroke="none" 
	d="
M775.000000,336.000000 
	C516.666687,336.000000 258.833344,336.000000 1.000000,336.000000 
	C1.000000,224.333328 1.000000,112.666664 1.000000,1.000000 
	C354.333344,1.000000 707.666687,1.000000 1061.000000,1.000000 
	C1061.000000,112.666664 1061.000000,224.333328 1061.000000,336.000000 
	C965.833313,336.000000 870.666687,336.000000 775.000000,336.000000 
M546.064575,209.343933 
	C546.144653,210.788055 546.224792,212.232178 546.313232,213.827667 
	C555.415466,213.827667 564.195801,213.827667 572.547668,213.827667 
	C572.547668,193.900116 574.060974,173.979736 572.113770,154.403549 
	C570.239746,135.562714 556.049927,126.665154 537.122131,128.554535 
	C527.023499,129.562592 518.871704,134.214310 511.529327,141.284714 
	C505.468964,131.931458 496.554138,128.538452 486.240631,128.208649 
	C475.992615,127.880959 466.705261,130.864136 458.400604,137.945572 
	C458.248505,134.814011 458.138672,132.552429 458.024658,130.205231 
	C448.922516,130.205231 440.046234,130.205231 431.278809,130.205231 
	C431.278809,158.299103 431.278809,186.033920 431.278809,213.708099 
	C440.369965,213.708099 449.123871,213.708099 458.218201,213.708099 
	C458.218201,198.112442 458.212677,182.807587 458.220642,167.502747 
	C458.224335,160.432571 463.669159,154.908661 471.452789,154.046387 
	C481.001617,152.988556 486.468842,156.277695 487.969269,164.321106 
	C488.575226,167.569534 488.726074,170.938126 488.747284,174.254181 
	C488.831238,187.363907 488.781769,200.474487 488.781769,213.626144 
	C498.198669,213.626144 507.070923,213.626144 516.055420,213.626144 
	C516.055420,197.921158 516.200439,182.588974 515.968933,167.262482 
	C515.897583,162.543182 517.647949,159.311615 521.444519,156.918640 
	C526.856079,153.507751 532.687439,152.487762 538.550781,155.193924 
	C544.432190,157.908417 545.957153,163.400101 545.989441,169.375931 
	C546.059570,182.374329 546.044678,195.373184 546.064575,209.343933 
M96.698212,71.118889 
	C95.798889,73.857964 94.138733,76.591385 94.118332,79.336990 
	C93.921402,105.835526 93.997520,132.336105 94.008385,158.836105 
	C94.008904,160.115662 94.128830,161.395187 94.194069,162.692993 
	C126.270607,162.692993 157.998962,162.692993 189.991013,162.692993 
	C189.991013,133.910812 190.053513,105.434464 189.933807,76.958885 
	C189.912094,71.791435 186.344391,69.021431 180.466949,69.014236 
	C154.800323,68.982834 129.133484,68.964340 103.467262,69.069649 
	C101.415909,69.078064 99.368561,70.064369 96.698212,71.118889 
M302.328033,187.782928 
	C310.595154,171.608643 311.124695,154.764984 305.360107,137.933441 
	C298.588806,118.162453 280.122406,105.602623 257.488464,104.994057 
	C240.187271,104.528870 222.865952,104.806519 205.553558,104.777328 
	C204.935349,104.776291 204.316711,105.026840 203.542450,105.193718 
	C203.542450,141.400177 203.542450,177.443680 203.542450,214.581268 
	C224.552933,213.973541 245.373230,214.391632 265.969299,212.441528 
	C281.478607,210.973053 293.966370,202.426315 302.328033,187.782928 
M189.999710,207.500000 
	C189.999710,194.077805 189.999710,180.655624 189.999710,167.333344 
	C157.645721,167.333344 125.926926,167.333344 94.003670,167.333344 
	C94.003670,195.969391 93.954407,224.272964 94.045700,252.576111 
	C94.063713,258.161652 97.419136,260.977051 103.567635,260.985168 
	C129.054977,261.018799 154.542404,261.014893 180.029755,260.989471 
	C187.199387,260.982330 189.974991,258.179779 189.990463,250.978958 
	C190.020905,236.819366 189.999573,222.659653 189.999710,207.500000 
M671.078918,160.865265 
	C671.902527,160.044556 672.682922,159.174316 673.556885,158.411255 
	C678.914734,153.733017 685.089661,152.419357 691.662964,154.969513 
	C698.247131,157.523865 699.473694,163.516052 699.829041,169.723053 
	C699.981140,172.379288 699.880615,175.050446 699.881287,177.714813 
	C699.884399,189.659134 699.882629,201.603455 699.882629,213.662521 
	C709.220032,213.662521 718.090515,213.662521 727.008362,213.662521 
	C727.008362,195.510880 727.535461,177.682175 726.872742,159.897797 
	C726.074768,138.483185 711.811340,126.858292 690.362061,128.739944 
	C682.292786,129.447830 675.578674,132.885635 668.787842,138.769699 
	C668.787842,135.183426 668.787842,132.658325 668.787842,130.071106 
	C659.449524,130.071106 650.680420,130.071106 641.810059,130.071106 
	C641.810059,158.131302 641.810059,185.960785 641.810059,213.687836 
	C650.992371,213.687836 659.744019,213.687836 668.891113,213.687836 
	C668.891113,198.253403 668.821045,183.132126 668.969666,168.013000 
	C668.990967,165.844955 670.067749,163.687317 671.078918,160.865265 
M805.748291,213.369324 
	C818.478699,208.588593 827.656799,200.016891 831.994934,187.097916 
	C841.556519,158.624069 823.633606,128.260666 790.129272,127.685066 
	C770.913147,127.354935 756.034241,135.404434 747.991394,153.189377 
	C740.359253,170.066025 742.148132,186.656250 754.432800,200.819687 
	C768.060059,216.531189 785.714478,219.013565 805.748291,213.369324 
M399.784393,139.714294 
	C383.699249,124.132179 353.048767,122.357819 335.044617,140.683670 
	C318.394714,157.631073 318.350464,184.760315 334.524292,202.658463 
	C348.734924,218.384094 378.106232,220.795242 395.399597,207.655853 
	C417.375854,190.958450 419.572510,160.944809 399.784393,139.714294 
M898.471497,175.074371 
	C903.654236,177.225662 908.772339,179.554474 914.040527,181.470795 
	C918.088745,182.943344 922.472961,183.550385 926.416809,185.226807 
	C928.383118,186.062622 929.697205,188.432938 931.306274,190.109161 
	C929.458008,191.484100 927.788940,193.413895 925.713135,194.084518 
	C923.444824,194.817337 920.671997,194.920593 918.342896,194.363113 
	C910.528503,192.492706 902.813904,190.205429 894.654663,187.966156 
	C893.402832,192.892853 892.205688,198.568161 890.469299,204.073410 
	C889.443298,207.326187 890.171936,208.802994 893.313599,210.029984 
	C905.828308,214.917526 918.791138,216.605682 931.996521,214.809875 
	C942.946106,213.320847 952.625854,208.930099 957.338257,197.925934 
	C963.494629,183.549973 956.564026,170.018265 940.240662,164.463593 
	C933.803223,162.272995 927.108704,160.842255 920.647827,158.712006 
	C919.259766,158.254318 917.504272,156.276413 917.495056,154.987564 
	C917.485229,153.608597 919.062195,151.594604 920.445984,150.977203 
	C922.466919,150.075531 925.048340,149.555862 927.189392,149.954758 
	C934.916199,151.394287 942.558655,153.286346 950.575562,155.084351 
	C952.634766,148.787292 954.889709,141.891891 957.302612,134.513153 
	C940.344910,128.350571 923.561401,125.274719 906.509583,132.050903 
	C888.635315,139.153931 884.257874,161.731781 898.471497,175.074371 
M611.450684,129.850052 
	C604.698975,129.850052 597.947266,129.850052 591.236450,129.850052 
	C591.236450,158.241348 591.236450,185.957886 591.236450,213.754059 
	C600.271301,213.754059 609.014709,213.754059 617.985474,213.754059 
	C617.985474,185.795609 617.985474,158.082382 617.985474,129.850037 
	C615.997620,129.850037 614.216736,129.850037 611.450684,129.850052 
M866.449402,104.740479 
	C861.361389,104.740479 856.273438,104.740479 851.802002,104.740479 
	C851.802002,119.152336 851.802002,132.866760 851.802002,146.478668 
	C858.754211,146.478668 864.817566,146.478668 871.511414,146.478668 
	C871.511414,132.519989 871.511414,118.915154 871.511414,104.933174 
	C870.329956,104.877266 868.884277,104.808861 866.449402,104.740479 
M597.911804,118.937798 
	C601.856812,119.093346 605.886597,119.834618 609.728577,119.278374 
	C616.974182,118.229378 620.227295,113.704491 619.946472,106.371292 
	C619.681030,99.440048 616.136719,95.654144 608.796692,94.773582 
	C606.347595,94.479774 603.816895,94.447556 601.362976,94.692024 
	C594.400146,95.385658 590.796326,98.296394 589.852966,103.664177 
	C588.508057,111.316109 590.480591,115.356369 597.911804,118.937798 
z"/>
<path fill="#01658F" opacity="1.000000" stroke="none" 
	d="
M546.064575,208.857895 
	C546.044678,195.373184 546.059570,182.374329 545.989441,169.375931 
	C545.957153,163.400101 544.432190,157.908417 538.550781,155.193924 
	C532.687439,152.487762 526.856079,153.507751 521.444519,156.918640 
	C517.647949,159.311615 515.897583,162.543182 515.968933,167.262482 
	C516.200439,182.588974 516.055420,197.921158 516.055420,213.626144 
	C507.070923,213.626144 498.198669,213.626144 488.781769,213.626144 
	C488.781769,200.474487 488.831238,187.363907 488.747284,174.254181 
	C488.726074,170.938126 488.575226,167.569534 487.969269,164.321106 
	C486.468842,156.277695 481.001617,152.988556 471.452789,154.046387 
	C463.669159,154.908661 458.224335,160.432571 458.220642,167.502747 
	C458.212677,182.807587 458.218201,198.112442 458.218201,213.708099 
	C449.123871,213.708099 440.369965,213.708099 431.278809,213.708099 
	C431.278809,186.033920 431.278809,158.299103 431.278809,130.205231 
	C440.046234,130.205231 448.922516,130.205231 458.024658,130.205231 
	C458.138672,132.552429 458.248505,134.814011 458.400604,137.945572 
	C466.705261,130.864136 475.992615,127.880959 486.240631,128.208649 
	C496.554138,128.538452 505.468964,131.931458 511.529327,141.284714 
	C518.871704,134.214310 527.023499,129.562592 537.122131,128.554535 
	C556.049927,126.665154 570.239746,135.562714 572.113770,154.403549 
	C574.060974,173.979736 572.547668,193.900116 572.547668,213.827667 
	C564.195801,213.827667 555.415466,213.827667 546.313232,213.827667 
	C546.224792,212.232178 546.144653,210.788055 546.064575,208.857895 
z"/>
<path fill="#E31836" opacity="1.000000" stroke="none" 
	d="
M97.008781,70.857559 
	C99.368561,70.064369 101.415909,69.078064 103.467262,69.069649 
	C129.133484,68.964340 154.800323,68.982834 180.466949,69.014236 
	C186.344391,69.021431 189.912094,71.791435 189.933807,76.958885 
	C190.053513,105.434464 189.991013,133.910812 189.991013,162.692993 
	C157.998962,162.692993 126.270607,162.692993 94.194069,162.692993 
	C94.128830,161.395187 94.008904,160.115662 94.008385,158.836105 
	C93.997520,132.336105 93.921402,105.835526 94.118332,79.336990 
	C94.138733,76.591385 95.798889,73.857964 97.008781,70.857559 
M138.212921,133.700745 
	C147.968002,135.593369 154.113693,130.070831 157.349808,124.067032 
	C160.508102,118.207619 159.482834,110.102013 153.208557,104.581673 
	C147.821091,99.841576 141.469009,98.554993 134.755432,101.732468 
	C128.394135,104.743202 124.238174,112.117905 125.004456,119.035484 
	C125.697449,125.291435 131.218292,131.474609 138.212921,133.700745 
z"/>
<path fill="#036690" opacity="1.000000" stroke="none" 
	d="
M302.157410,188.109650 
	C293.966370,202.426315 281.478607,210.973053 265.969299,212.441528 
	C245.373230,214.391632 224.552933,213.973541 203.542450,214.581268 
	C203.542450,177.443680 203.542450,141.400177 203.542450,105.193718 
	C204.316711,105.026840 204.935349,104.776291 205.553558,104.777328 
	C222.865952,104.806519 240.187271,104.528870 257.488464,104.994057 
	C280.122406,105.602623 298.588806,118.162453 305.360107,137.933441 
	C311.124695,154.764984 310.595154,171.608643 302.157410,188.109650 
M254.133026,189.890732 
	C271.080658,188.143280 281.456390,175.847778 280.589081,158.539719 
	C279.785583,142.505341 272.140991,131.558319 258.450562,129.529510 
	C249.578506,128.214767 240.353455,129.282166 231.090073,129.282166 
	C231.090073,149.269058 231.090073,169.446228 231.090073,189.544235 
	C231.662476,189.742249 231.962585,189.936249 232.263016,189.936768 
	C239.244659,189.948761 246.226334,189.939774 254.133026,189.890732 
z"/>
<path fill="#00648F" opacity="1.000000" stroke="none" 
	d="
M189.999695,208.000000 
	C189.999573,222.659653 190.020905,236.819366 189.990463,250.978958 
	C189.974991,258.179779 187.199387,260.982330 180.029755,260.989471 
	C154.542404,261.014893 129.054977,261.018799 103.567635,260.985168 
	C97.419136,260.977051 94.063713,258.161652 94.045700,252.576111 
	C93.954407,224.272964 94.003670,195.969391 94.003670,167.333344 
	C125.926926,167.333344 157.645721,167.333344 189.999710,167.333344 
	C189.999710,180.655624 189.999710,194.077805 189.999695,208.000000 
M173.158691,204.353561 
	C176.676331,196.943649 175.359695,190.535202 169.415848,184.870804 
	C164.107773,179.812286 157.687805,178.520432 150.998383,181.498383 
	C145.038223,184.151688 140.820938,190.990952 141.000626,197.711929 
	C141.160736,203.700302 146.208237,210.972076 151.815643,212.883316 
	C158.972443,215.322632 165.946442,214.686813 173.158691,204.353561 
M140.983124,240.116470 
	C144.580521,231.169693 143.648636,226.095032 137.240845,219.737885 
	C131.948761,214.487625 124.323326,213.408127 117.937309,217.005127 
	C111.624428,220.560913 107.581116,229.052826 109.174171,235.409729 
	C110.955635,242.518448 117.973351,248.476654 124.739166,249.041916 
	C131.868851,249.637619 136.391342,245.546295 140.983124,240.116470 
z"/>
<path fill="#036690" opacity="1.000000" stroke="none" 
	d="
M670.867493,161.195068 
	C670.067749,163.687317 668.990967,165.844955 668.969666,168.013000 
	C668.821045,183.132126 668.891113,198.253403 668.891113,213.687836 
	C659.744019,213.687836 650.992371,213.687836 641.810059,213.687836 
	C641.810059,185.960785 641.810059,158.131302 641.810059,130.071106 
	C650.680420,130.071106 659.449524,130.071106 668.787842,130.071106 
	C668.787842,132.658325 668.787842,135.183426 668.787842,138.769699 
	C675.578674,132.885635 682.292786,129.447830 690.362061,128.739944 
	C711.811340,126.858292 726.074768,138.483185 726.872742,159.897797 
	C727.535461,177.682175 727.008362,195.510880 727.008362,213.662521 
	C718.090515,213.662521 709.220032,213.662521 699.882629,213.662521 
	C699.882629,201.603455 699.884399,189.659134 699.881287,177.714813 
	C699.880615,175.050446 699.981140,172.379288 699.829041,169.723053 
	C699.473694,163.516052 698.247131,157.523865 691.662964,154.969513 
	C685.089661,152.419357 678.914734,153.733017 673.556885,158.411255 
	C672.682922,159.174316 671.902527,160.044556 670.867493,161.195068 
z"/>
<path fill="#026590" opacity="1.000000" stroke="none" 
	d="
M805.390137,213.536652 
	C785.714478,219.013565 768.060059,216.531189 754.432800,200.819687 
	C742.148132,186.656250 740.359253,170.066025 747.991394,153.189377 
	C756.034241,135.404434 770.913147,127.354935 790.129272,127.685066 
	C823.633606,128.260666 841.556519,158.624069 831.994934,187.097916 
	C827.656799,200.016891 818.478699,208.588593 805.390137,213.536652 
M791.142029,191.031815 
	C801.536865,189.122284 807.951904,181.871964 807.993225,171.986465 
	C808.031799,162.777847 801.382935,154.490479 792.745544,152.981232 
	C781.177185,150.959854 771.405518,158.618698 770.366333,170.781967 
	C769.372864,182.409821 779.188354,192.501282 791.142029,191.031815 
z"/>
<path fill="#026590" opacity="1.000000" stroke="none" 
	d="
M400.061829,139.939087 
	C419.572510,160.944809 417.375854,190.958450 395.399597,207.655853 
	C378.106232,220.795242 348.734924,218.384094 334.524292,202.658463 
	C318.350464,184.760315 318.394714,157.631073 335.044617,140.683670 
	C353.048767,122.357819 383.699249,124.132179 400.061829,139.939087 
M379.567902,156.845383 
	C373.553955,151.943634 366.811646,151.230392 359.990051,154.389740 
	C353.109467,157.576416 349.683167,163.566940 349.119385,171.044678 
	C348.453125,179.881302 354.082092,188.037018 362.291290,190.499298 
	C370.353577,192.917496 379.691925,189.342789 383.921631,182.219223 
	C388.844940,173.927521 387.376648,164.302414 379.567902,156.845383 
z"/>
<path fill="#036590" opacity="1.000000" stroke="none" 
	d="
M898.180359,174.859726 
	C884.257874,161.731781 888.635315,139.153931 906.509583,132.050903 
	C923.561401,125.274719 940.344910,128.350571 957.302612,134.513153 
	C954.889709,141.891891 952.634766,148.787292 950.575562,155.084351 
	C942.558655,153.286346 934.916199,151.394287 927.189392,149.954758 
	C925.048340,149.555862 922.466919,150.075531 920.445984,150.977203 
	C919.062195,151.594604 917.485229,153.608597 917.495056,154.987564 
	C917.504272,156.276413 919.259766,158.254318 920.647827,158.712006 
	C927.108704,160.842255 933.803223,162.272995 940.240662,164.463593 
	C956.564026,170.018265 963.494629,183.549973 957.338257,197.925934 
	C952.625854,208.930099 942.946106,213.320847 931.996521,214.809875 
	C918.791138,216.605682 905.828308,214.917526 893.313599,210.029984 
	C890.171936,208.802994 889.443298,207.326187 890.469299,204.073410 
	C892.205688,198.568161 893.402832,192.892853 894.654663,187.966156 
	C902.813904,190.205429 910.528503,192.492706 918.342896,194.363113 
	C920.671997,194.920593 923.444824,194.817337 925.713135,194.084518 
	C927.788940,193.413895 929.458008,191.484100 931.306274,190.109161 
	C929.697205,188.432938 928.383118,186.062622 926.416809,185.226807 
	C922.472961,183.550385 918.088745,182.943344 914.040527,181.470795 
	C908.772339,179.554474 903.654236,177.225662 898.180359,174.859726 
z"/>
<path fill="#00648F" opacity="1.000000" stroke="none" 
	d="
M611.943298,129.850037 
	C614.216736,129.850037 615.997620,129.850037 617.985474,129.850037 
	C617.985474,158.082382 617.985474,185.795609 617.985474,213.754059 
	C609.014709,213.754059 600.271301,213.754059 591.236450,213.754059 
	C591.236450,185.957886 591.236450,158.241348 591.236450,129.850052 
	C597.947266,129.850052 604.698975,129.850052 611.943298,129.850037 
z"/>
<path fill="#046691" opacity="1.000000" stroke="none" 
	d="
M866.943970,104.740463 
	C868.884277,104.808861 870.329956,104.877266 871.511414,104.933174 
	C871.511414,118.915154 871.511414,132.519989 871.511414,146.478668 
	C864.817566,146.478668 858.754211,146.478668 851.802002,146.478668 
	C851.802002,132.866760 851.802002,119.152336 851.802002,104.740479 
	C856.273438,104.740479 861.361389,104.740479 866.943970,104.740463 
z"/>
<path fill="#056691" opacity="1.000000" stroke="none" 
	d="
M597.540466,118.793755 
	C590.480591,115.356369 588.508057,111.316109 589.852966,103.664177 
	C590.796326,98.296394 594.400146,95.385658 601.362976,94.692024 
	C603.816895,94.447556 606.347595,94.479774 608.796692,94.773582 
	C616.136719,95.654144 619.681030,99.440048 619.946472,106.371292 
	C620.227295,113.704491 616.974182,118.229378 609.728577,119.278374 
	C605.886597,119.834618 601.856812,119.093346 597.540466,118.793755 
z"/>
<path fill="#FFFFFF" opacity="1.000000" stroke="none" 
	d="
M137.905670,133.420563 
	C131.218292,131.474609 125.697449,125.291435 125.004456,119.035484 
	C124.238174,112.117905 128.394135,104.743202 134.755432,101.732468 
	C141.469009,98.554993 147.821091,99.841576 153.208557,104.581673 
	C159.482834,110.102013 160.508102,118.207619 157.349808,124.067032 
	C154.113693,130.070831 147.968002,135.593369 137.905670,133.420563 
z"/>
<path fill="#FDFEFE" opacity="1.000000" stroke="none" 
	d="
M253.670502,189.912704 
	C246.226334,189.939774 239.244659,189.948761 232.263016,189.936768 
	C231.962585,189.936249 231.662476,189.742249 231.090073,189.544235 
	C231.090073,169.446228 231.090073,149.269058 231.090073,129.282166 
	C240.353455,129.282166 249.578506,128.214767 258.450562,129.529510 
	C272.140991,131.558319 279.785583,142.505341 280.589081,158.539719 
	C281.456390,175.847778 271.080658,188.143280 253.670502,189.912704 
z"/>
<path fill="#FFFFFF" opacity="1.000000" stroke="none" 
	d="
M173.071243,204.732849 
	C165.946442,214.686813 158.972443,215.322632 151.815643,212.883316 
	C146.208237,210.972076 141.160736,203.700302 141.000626,197.711929 
	C140.820938,190.990952 145.038223,184.151688 150.998383,181.498383 
	C157.687805,178.520432 164.107773,179.812286 169.415848,184.870804 
	C175.359695,190.535202 176.676331,196.943649 173.071243,204.732849 
z"/>
<path fill="#FFFFFF" opacity="1.000000" stroke="none" 
	d="
M140.830444,240.469574 
	C136.391342,245.546295 131.868851,249.637619 124.739166,249.041916 
	C117.973351,248.476654 110.955635,242.518448 109.174171,235.409729 
	C107.581116,229.052826 111.624428,220.560913 117.937309,217.005127 
	C124.323326,213.408127 131.948761,214.487625 137.240845,219.737885 
	C143.648636,226.095032 144.580521,231.169693 140.830444,240.469574 
z"/>
<path fill="#FCFDFE" opacity="1.000000" stroke="none" 
	d="
M790.707214,191.071838 
	C779.188354,192.501282 769.372864,182.409821 770.366333,170.781967 
	C771.405518,158.618698 781.177185,150.959854 792.745544,152.981232 
	C801.382935,154.490479 808.031799,162.777847 807.993225,171.986465 
	C807.951904,181.871964 801.536865,189.122284 790.707214,191.071838 
z"/>
<path fill="#FCFDFD" opacity="1.000000" stroke="none" 
	d="
M379.846069,157.085800 
	C387.376648,164.302414 388.844940,173.927521 383.921631,182.219223 
	C379.691925,189.342789 370.353577,192.917496 362.291290,190.499298 
	C354.082092,188.037018 348.453125,179.881302 349.119385,171.044678 
	C349.683167,163.566940 353.109467,157.576416 359.990051,154.389740 
	C366.811646,151.230392 373.553955,151.943634 379.846069,157.085800 
z"/>
</svg>