<svg version="1.1" id="Layer_1" xmlns="http://www.w3.org/2000/svg" xmlns:xlink="http://www.w3.org/1999/xlink" x="0px" y="0px"
	 width="100%" viewBox="0 0 1449 260" enable-background="new 0 0 1449 260" xml:space="preserve">
<path fill="#FFFFFF" opacity="1.000000" stroke="none" 
	d="
M1374.000000,261.000000 
	C916.000122,261.000000 458.500275,261.000000 1.000307,261.000000 
	C1.000205,174.333496 1.000205,87.666992 1.000102,1.000365 
	C483.999664,1.000243 966.999329,1.000243 1449.999268,1.000122 
	C1449.999512,87.666328 1449.999512,174.332657 1449.999756,260.999512 
	C1424.833374,261.000000 1399.666626,261.000000 1374.000000,261.000000 
M726.347595,216.840408 
	C760.119202,204.548965 793.890747,192.257507 828.039673,179.828735 
	C831.878540,190.373077 835.560486,200.521713 839.268799,210.660690 
	C842.205444,218.690048 845.299194,220.127777 853.332397,217.206238 
	C881.202820,207.070160 909.061218,196.901016 936.944824,186.801224 
	C943.257141,184.514801 949.652344,182.457092 956.180725,180.235809 
	C960.084167,190.940750 963.773987,201.113647 967.504211,211.271729 
	C970.126526,218.412674 973.498901,220.022186 980.536743,217.489532 
	C997.294861,211.458984 1014.051086,205.422775 1030.793457,199.348846 
	C1048.413940,192.956360 1066.017578,186.517410 1084.074829,179.936066 
	C1087.889404,190.410446 1091.516235,200.397125 1095.163574,210.376297 
	C1098.230103,218.766113 1101.215332,220.168564 1109.519897,217.146469 
	C1142.085327,205.295731 1174.648804,193.439880 1207.216431,181.595108 
	C1208.729492,181.044830 1210.274658,180.582672 1212.093750,179.984421 
	C1215.794556,190.152145 1219.371704,199.994522 1222.958984,209.833160 
	C1226.328735,219.074966 1228.972290,220.259323 1238.383179,216.829834 
	C1266.197754,206.693680 1294.014893,196.564621 1321.833618,186.439651 
	C1347.165161,177.219925 1372.502930,168.017349 1397.831421,158.789368 
	C1404.918091,156.207474 1406.464233,152.824066 1403.862305,145.655334 
	C1399.087769,132.499832 1394.285889,119.354218 1389.497803,106.203606 
	C1386.228638,97.224892 1383.463623,95.962479 1374.435425,99.252922 
	C1342.032104,111.062729 1309.625122,122.862259 1277.214844,134.652802 
	C1275.717773,135.197418 1274.175537,135.617783 1272.430420,136.166443 
	C1268.619873,125.726639 1264.968384,115.726295 1261.319824,105.724892 
	C1258.293457,97.429535 1255.260376,96.034630 1246.893433,99.081390 
	C1214.486816,110.882065 1182.079590,122.681587 1149.670532,134.475449 
	C1148.021240,135.075668 1146.351440,135.619919 1144.466675,136.267380 
	C1140.616089,125.717239 1136.964844,115.716454 1133.316040,105.714684 
	C1130.292969,97.427795 1127.257690,96.035767 1118.883301,99.085281 
	C1086.476685,110.886101 1054.069580,122.685677 1021.660278,134.479172 
	C1020.012451,135.078827 1018.342468,135.617798 1016.463623,136.259949 
	C1012.612610,125.708038 1008.961426,115.706635 1005.312378,105.704460 
	C1002.291931,97.424866 999.255981,96.036484 990.873108,99.089142 
	C958.466492,110.890091 926.059448,122.689789 893.650024,134.482941 
	C892.003662,135.082031 890.333496,135.615692 888.460571,136.252533 
	C884.608826,125.698288 880.957825,115.696579 877.308594,105.694199 
	C874.290344,97.420982 871.255188,96.036827 862.862854,99.092934 
	C830.456299,110.894028 798.049377,122.693855 765.639771,134.486633 
	C763.994873,135.085144 762.324463,135.613525 760.457520,136.245071 
	C756.605164,125.688805 752.954163,115.686676 749.304871,105.683952 
	C746.288818,97.417152 743.254333,96.037178 734.852600,99.096786 
	C702.446167,110.898033 670.039246,122.697952 637.629517,134.490356 
	C635.986145,135.088318 634.315430,135.611450 632.454590,136.237686 
	C628.601562,125.679283 624.950745,115.676689 621.301147,105.673676 
	C618.285522,97.408302 615.258606,96.035690 606.842407,99.100609 
	C574.435974,110.902023 542.029053,122.702095 509.619263,134.494125 
	C507.977295,135.091553 506.306396,135.609314 504.445709,136.232224 
	C500.483429,125.356720 496.741760,115.032097 492.958832,104.722618 
	C490.454315,97.897179 486.978912,96.180077 480.252991,98.624870 
	C426.230743,118.261398 372.217133,137.921539 318.212799,157.607300 
	C311.733032,159.969315 310.153076,163.501892 312.529663,170.097397 
	C317.443390,183.734039 322.409058,197.352020 327.383270,210.966751 
	C330.184052,218.632721 333.389465,220.088425 341.167358,217.259018 
	C367.594788,207.645432 394.015442,198.013077 420.442627,188.398758 
	C428.212952,185.571869 435.996399,182.781036 443.625763,180.027115 
	C444.137604,180.690002 444.418213,180.919006 444.525299,181.211502 
	C448.191437,191.224228 451.823853,201.249313 455.498993,211.258698 
	C458.124237,218.408615 461.494781,220.023819 468.523743,217.494705 
	C485.282135,211.464844 502.038544,205.429230 518.780945,199.355042 
	C536.402771,192.961761 554.007385,186.520996 572.072815,179.935776 
	C575.941467,190.556137 579.621887,200.699600 583.332031,210.832153 
	C586.170837,218.585022 589.357422,220.092621 597.030396,217.303482 
	C623.336548,207.741196 649.629272,198.141602 675.945007,188.605560 
	C683.858704,185.737869 691.830688,183.030960 700.144348,180.121445 
	C703.919617,190.489670 707.547546,200.485153 711.199219,210.471924 
	C714.241821,218.792801 717.125000,220.110519 726.347595,216.840408 
M172.048401,166.300674 
	C172.621536,167.216721 173.194656,168.132782 173.755692,169.029495 
	C199.816238,159.571564 225.645279,150.217621 251.457458,140.817398 
	C259.005829,138.068451 260.573090,134.807800 257.915100,127.485901 
	C249.276123,103.688354 240.618988,79.897346 231.922379,56.120815 
	C229.686798,50.008778 226.219971,48.165874 220.445541,50.258278 
	C193.840179,59.898918 167.271835,69.641693 140.385406,79.459129 
	C150.929398,108.233711 161.426620,136.880676 172.048401,166.300674 
M140.062424,90.307152 
	C138.963409,87.161865 137.864410,84.016579 136.714691,80.726135 
	C109.871132,90.545624 83.589745,100.131577 57.333111,109.784874 
	C51.150234,112.058029 49.612434,115.226425 51.802422,121.321564 
	C60.534683,145.625092 69.321686,169.909103 78.164406,194.172653 
	C80.333099,200.123337 83.987663,201.738617 89.865425,199.623230 
	C99.682083,196.090240 109.488617,192.528885 119.288147,188.948624 
	C136.012344,182.838455 152.727844,176.704437 169.433212,170.585480 
	C168.370956,167.480255 167.478928,164.710327 166.480438,161.979340 
	C157.827301,138.312225 149.155029,114.652122 140.062424,90.307152 
z"/>
<path fill="#01658F" opacity="1.000000" stroke="none" 
	d="
M725.982422,216.977875 
	C717.125000,220.110519 714.241821,218.792801 711.199219,210.471924 
	C707.547546,200.485153 703.919617,190.489670 700.144348,180.121445 
	C691.830688,183.030960 683.858704,185.737869 675.945007,188.605560 
	C649.629272,198.141602 623.336548,207.741196 597.030396,217.303482 
	C589.357422,220.092621 586.170837,218.585022 583.332031,210.832153 
	C579.621887,200.699600 575.941467,190.556137 572.072815,179.935776 
	C554.007385,186.520996 536.402771,192.961761 518.780945,199.355042 
	C502.038544,205.429230 485.282135,211.464844 468.523743,217.494705 
	C461.494781,220.023819 458.124237,218.408615 455.498993,211.258698 
	C451.823853,201.249313 448.191437,191.224228 444.525299,181.211502 
	C444.418213,180.919006 444.137604,180.690002 443.625763,180.027115 
	C435.996399,182.781036 428.212952,185.571869 420.442627,188.398758 
	C394.015442,198.013077 367.594788,207.645432 341.167358,217.259018 
	C333.389465,220.088425 330.184052,218.632721 327.383270,210.966751 
	C322.409058,197.352020 317.443390,183.734039 312.529663,170.097397 
	C310.153076,163.501892 311.733032,159.969315 318.212799,157.607300 
	C372.217133,137.921539 426.230743,118.261398 480.252991,98.624870 
	C486.978912,96.180077 490.454315,97.897179 492.958832,104.722618 
	C496.741760,115.032097 500.483429,125.356720 504.445709,136.232224 
	C506.306396,135.609314 507.977295,135.091553 509.619263,134.494125 
	C542.029053,122.702095 574.435974,110.902023 606.842407,99.100609 
	C615.258606,96.035690 618.285522,97.408302 621.301147,105.673676 
	C624.950745,115.676689 628.601562,125.679283 632.454590,136.237686 
	C634.315430,135.611450 635.986145,135.088318 637.629517,134.490356 
	C670.039246,122.697952 702.446167,110.898033 734.852600,99.096786 
	C743.254333,96.037178 746.288818,97.417152 749.304871,105.683952 
	C752.954163,115.686676 756.605164,125.688805 760.457520,136.245071 
	C762.324463,135.613525 763.994873,135.085144 765.639771,134.486633 
	C798.049377,122.693855 830.456299,110.894028 862.862854,99.092934 
	C871.255188,96.036827 874.290344,97.420982 877.308594,105.694199 
	C880.957825,115.696579 884.608826,125.698288 888.460571,136.252533 
	C890.333496,135.615692 892.003662,135.082031 893.650024,134.482941 
	C926.059448,122.689789 958.466492,110.890091 990.873108,99.089142 
	C999.255981,96.036484 1002.291931,97.424866 1005.312378,105.704460 
	C1008.961426,115.706635 1012.612610,125.708038 1016.463623,136.259949 
	C1018.342468,135.617798 1020.012451,135.078827 1021.660278,134.479172 
	C1054.069580,122.685677 1086.476685,110.886101 1118.883301,99.085281 
	C1127.257690,96.035767 1130.292969,97.427795 1133.316040,105.714684 
	C1136.964844,115.716454 1140.616089,125.717239 1144.466675,136.267380 
	C1146.351440,135.619919 1148.021240,135.075668 1149.670532,134.475449 
	C1182.079590,122.681587 1214.486816,110.882065 1246.893433,99.081390 
	C1255.260376,96.034630 1258.293457,97.429535 1261.319824,105.724892 
	C1264.968384,115.726295 1268.619873,125.726639 1272.430420,136.166443 
	C1274.175537,135.617783 1275.717773,135.197418 1277.214844,134.652802 
	C1309.625122,122.862259 1342.032104,111.062729 1374.435425,99.252922 
	C1383.463623,95.962479 1386.228638,97.224892 1389.497803,106.203606 
	C1394.285889,119.354218 1399.087769,132.499832 1403.862305,145.655334 
	C1406.464233,152.824066 1404.918091,156.207474 1397.831421,158.789368 
	C1372.502930,168.017349 1347.165161,177.219925 1321.833618,186.439651 
	C1294.014893,196.564621 1266.197754,206.693680 1238.383179,216.829834 
	C1228.972290,220.259323 1226.328735,219.074966 1222.958984,209.833160 
	C1219.371704,199.994522 1215.794556,190.152145 1212.093750,179.984421 
	C1210.274658,180.582672 1208.729492,181.044830 1207.216431,181.595108 
	C1174.648804,193.439880 1142.085327,205.295731 1109.519897,217.146469 
	C1101.215332,220.168564 1098.230103,218.766113 1095.163574,210.376297 
	C1091.516235,200.397125 1087.889404,190.410446 1084.074829,179.936066 
	C1066.017578,186.517410 1048.413940,192.956360 1030.793457,199.348846 
	C1014.051086,205.422775 997.294861,211.458984 980.536743,217.489532 
	C973.498901,220.022186 970.126526,218.412674 967.504211,211.271729 
	C963.773987,201.113647 960.084167,190.940750 956.180725,180.235809 
	C949.652344,182.457092 943.257141,184.514801 936.944824,186.801224 
	C909.061218,196.901016 881.202820,207.070160 853.332397,217.206238 
	C845.299194,220.127777 842.205444,218.690048 839.268799,210.660690 
	C835.560486,200.521713 831.878540,190.373077 828.039673,179.828735 
	C793.890747,192.257507 760.119202,204.548965 725.982422,216.977875 
z"/>
<path fill="#E31837" opacity="1.000000" stroke="none" 
	d="
M171.986115,165.914154 
	C161.426620,136.880676 150.929398,108.233711 140.385406,79.459129 
	C167.271835,69.641693 193.840179,59.898918 220.445541,50.258278 
	C226.219971,48.165874 229.686798,50.008778 231.922379,56.120815 
	C240.618988,79.897346 249.276123,103.688354 257.915100,127.485901 
	C260.573090,134.807800 259.005829,138.068451 251.457458,140.817398 
	C225.645279,150.217621 199.816238,159.571564 173.755692,169.029495 
	C173.194656,168.132782 172.621536,167.216721 171.986115,165.914154 
M203.448364,124.998985 
	C213.237701,122.816231 219.553818,113.392410 216.656815,104.387505 
	C214.379745,97.309532 209.542740,90.798279 197.589569,91.959366 
	C190.540253,92.644104 183.643494,99.038345 183.092834,106.786896 
	C182.337006,117.422554 190.795959,127.323570 203.448364,124.998985 
z"/>
<path fill="#01658F" opacity="1.000000" stroke="none" 
	d="
M140.275436,90.648544 
	C149.155029,114.652122 157.827301,138.312225 166.480438,161.979340 
	C167.478928,164.710327 168.370956,167.480255 169.433212,170.585480 
	C152.727844,176.704437 136.012344,182.838455 119.288147,188.948624 
	C109.488617,192.528885 99.682083,196.090240 89.865425,199.623230 
	C83.987663,201.738617 80.333099,200.123337 78.164406,194.172653 
	C69.321686,169.909103 60.534683,145.625092 51.802422,121.321564 
	C49.612434,115.226425 51.150234,112.058029 57.333111,109.784874 
	C83.589745,100.131577 109.871132,90.545624 136.714691,80.726135 
	C137.864410,84.016579 138.963409,87.161865 140.275436,90.648544 
M103.052338,131.189255 
	C103.335312,125.854019 100.308067,122.150513 96.535568,119.159477 
	C91.533569,115.193642 85.542458,114.732811 79.950775,117.210205 
	C74.827408,119.480103 70.603310,123.348984 70.040283,129.546295 
	C69.405495,136.533524 70.701828,142.775848 77.153580,147.057968 
	C88.663094,154.697021 104.540886,145.947357 103.052338,131.189255 
M126.560074,167.112869 
	C132.926804,169.557129 138.225647,166.954193 142.521988,162.788452 
	C147.846786,157.625488 148.410828,150.841339 145.880569,144.190216 
	C143.386536,137.634323 137.782532,134.550659 131.029984,134.067017 
	C122.207932,133.435150 115.540695,139.409164 113.230598,149.452957 
	C111.762230,155.837112 117.460358,163.831253 126.560074,167.112869 
z"/>
<path fill="#FFFFFF" opacity="1.000000" stroke="none" 
	d="
M203.039291,125.002518 
	C190.795959,127.323570 182.337006,117.422554 183.092834,106.786896 
	C183.643494,99.038345 190.540253,92.644104 197.589569,91.959366 
	C209.542740,90.798279 214.379745,97.309532 216.656815,104.387505 
	C219.553818,113.392410 213.237701,122.816231 203.039291,125.002518 
z"/>
<path fill="#FFFFFF" opacity="1.000000" stroke="none" 
	d="
M103.233612,131.558868 
	C104.540886,145.947357 88.663094,154.697021 77.153580,147.057968 
	C70.701828,142.775848 69.405495,136.533524 70.040283,129.546295 
	C70.603310,123.348984 74.827408,119.480103 79.950775,117.210205 
	C85.542458,114.732811 91.533569,115.193642 96.535568,119.159477 
	C100.308067,122.150513 103.335312,125.854019 103.233612,131.558868 
z"/>
<path fill="#FFFFFF" opacity="1.000000" stroke="none" 
	d="
M126.152237,167.060974 
	C117.460358,163.831253 111.762230,155.837112 113.230598,149.452957 
	C115.540695,139.409164 122.207932,133.435150 131.029984,134.067017 
	C137.782532,134.550659 143.386536,137.634323 145.880569,144.190216 
	C148.410828,150.841339 147.846786,157.625488 142.521988,162.788452 
	C138.225647,166.954193 132.926804,169.557129 126.152237,167.060974 
z"/>
</svg>